<mxfile host="app.diagrams.net" modified="2021-01-24T23:03:05.470Z" agent="5.0 (Windows NT 10.0; Win64; x64) AppleWebKit/537.36 (KHTML, like Gecko) Chrome/87.0.4280.141 Safari/537.36" etag="vQcZ8rMnooRc5RhwiIuh" version="14.2.7" type="github">
  <diagram id="C5RBs43oDa-KdzZeNtuy" name="Page-1">
    <mxGraphModel dx="1422" dy="914" grid="1" gridSize="10" guides="1" tooltips="1" connect="1" arrows="1" fold="1" page="1" pageScale="1" pageWidth="827" pageHeight="1169" math="0" shadow="0">
      <root>
        <mxCell id="WIyWlLk6GJQsqaUBKTNV-0" />
        <mxCell id="WIyWlLk6GJQsqaUBKTNV-1" parent="WIyWlLk6GJQsqaUBKTNV-0" />
        <mxCell id="HYE9KxY75kxWySCjxelc-9" style="edgeStyle=orthogonalEdgeStyle;rounded=0;orthogonalLoop=1;jettySize=auto;html=1;" edge="1" parent="WIyWlLk6GJQsqaUBKTNV-1" source="HYE9KxY75kxWySCjxelc-0" target="HYE9KxY75kxWySCjxelc-8">
          <mxGeometry relative="1" as="geometry" />
        </mxCell>
        <mxCell id="HYE9KxY75kxWySCjxelc-0" value="Actor" style="shape=umlActor;verticalLabelPosition=bottom;verticalAlign=top;html=1;outlineConnect=0;" vertex="1" parent="WIyWlLk6GJQsqaUBKTNV-1">
          <mxGeometry x="120" y="50" width="30" height="60" as="geometry" />
        </mxCell>
        <mxCell id="HYE9KxY75kxWySCjxelc-25" style="edgeStyle=orthogonalEdgeStyle;rounded=0;orthogonalLoop=1;jettySize=auto;html=1;entryX=1;entryY=0.5;entryDx=0;entryDy=0;" edge="1" parent="WIyWlLk6GJQsqaUBKTNV-1" source="HYE9KxY75kxWySCjxelc-7" target="HYE9KxY75kxWySCjxelc-8">
          <mxGeometry relative="1" as="geometry" />
        </mxCell>
        <mxCell id="HYE9KxY75kxWySCjxelc-7" value="Twitch API&lt;br&gt;Chat WS" style="rounded=1;whiteSpace=wrap;html=1;" vertex="1" parent="WIyWlLk6GJQsqaUBKTNV-1">
          <mxGeometry x="540" y="50" width="120" height="60" as="geometry" />
        </mxCell>
        <mxCell id="HYE9KxY75kxWySCjxelc-23" style="edgeStyle=orthogonalEdgeStyle;rounded=0;orthogonalLoop=1;jettySize=auto;html=1;entryX=0.5;entryY=0;entryDx=0;entryDy=0;" edge="1" parent="WIyWlLk6GJQsqaUBKTNV-1" source="HYE9KxY75kxWySCjxelc-8" target="HYE9KxY75kxWySCjxelc-22">
          <mxGeometry relative="1" as="geometry" />
        </mxCell>
        <mxCell id="HYE9KxY75kxWySCjxelc-26" style="edgeStyle=orthogonalEdgeStyle;rounded=0;orthogonalLoop=1;jettySize=auto;html=1;entryX=0;entryY=0.5;entryDx=0;entryDy=0;" edge="1" parent="WIyWlLk6GJQsqaUBKTNV-1" source="HYE9KxY75kxWySCjxelc-8" target="HYE9KxY75kxWySCjxelc-7">
          <mxGeometry relative="1" as="geometry" />
        </mxCell>
        <mxCell id="HYE9KxY75kxWySCjxelc-8" value="Admin Portal" style="shape=hexagon;perimeter=hexagonPerimeter2;whiteSpace=wrap;html=1;fixedSize=1;" vertex="1" parent="WIyWlLk6GJQsqaUBKTNV-1">
          <mxGeometry x="300" y="40" width="120" height="80" as="geometry" />
        </mxCell>
        <mxCell id="HYE9KxY75kxWySCjxelc-11" value="GCP&lt;br&gt;Firestore" style="shape=dataStorage;whiteSpace=wrap;html=1;fixedSize=1;" vertex="1" parent="WIyWlLk6GJQsqaUBKTNV-1">
          <mxGeometry x="530" y="160" width="100" height="80" as="geometry" />
        </mxCell>
        <mxCell id="HYE9KxY75kxWySCjxelc-24" style="edgeStyle=orthogonalEdgeStyle;rounded=0;orthogonalLoop=1;jettySize=auto;html=1;entryX=0;entryY=0.5;entryDx=0;entryDy=0;" edge="1" parent="WIyWlLk6GJQsqaUBKTNV-1" source="HYE9KxY75kxWySCjxelc-22" target="HYE9KxY75kxWySCjxelc-11">
          <mxGeometry relative="1" as="geometry" />
        </mxCell>
        <mxCell id="HYE9KxY75kxWySCjxelc-22" value="GCP&lt;br&gt;Cloud Functions" style="shape=hexagon;perimeter=hexagonPerimeter2;whiteSpace=wrap;html=1;fixedSize=1;" vertex="1" parent="WIyWlLk6GJQsqaUBKTNV-1">
          <mxGeometry x="300" y="160" width="120" height="80" as="geometry" />
        </mxCell>
        <mxCell id="HYE9KxY75kxWySCjxelc-27" value="OAuth + Permissions" style="shape=callout;whiteSpace=wrap;html=1;perimeter=calloutPerimeter;" vertex="1" parent="WIyWlLk6GJQsqaUBKTNV-1">
          <mxGeometry x="210" y="20" width="90" height="60" as="geometry" />
        </mxCell>
      </root>
    </mxGraphModel>
  </diagram>
</mxfile>
